<?xml version="1.0" encoding="UTF-8"?>
<svg xmlns="http://www.w3.org/2000/svg" xmlns:xlink="http://www.w3.org/1999/xlink" width="39.596771pt" height="30pt" viewBox="0 0 39.596771 30" version="1.1">
<defs>
<filter id="alpha" filterUnits="objectBoundingBox" x="0%" y="0%" width="100%" height="100%">
  <feColorMatrix type="matrix" in="SourceGraphic" values="0 0 0 0 1 0 0 0 0 1 0 0 0 0 1 0 0 0 1 0"/>
</filter>
<clipPath id="clip2">
  <path d="M 0 0 L 39.597656 0 L 39.597656 30 L 0 30 Z M 0 0 "/>
</clipPath>
<clipPath id="clip1">
  <rect width="40" height="30"/>
</clipPath>
<g id="surface8" clip-path="url(#clip1)">
<g clip-path="url(#clip2)" clip-rule="nonzero">
<path style=" stroke:none;fill-rule:nonzero;fill:rgb(0%,0%,0%);fill-opacity:1;" d="M 0 0 L 39.597656 0 L 39.597656 30 L 0 30 Z M 0 0 "/>
</g>
</g>
<mask id="mask0">
  <g filter="url(#alpha)">
<use xlink:href="#surface8"/>
  </g>
</mask>
<clipPath id="clip4">
  <path d="M 0 0 L 39.597656 0 L 39.597656 30 L 0 30 Z M 0 0 "/>
</clipPath>
<clipPath id="clip3">
  <rect width="40" height="30"/>
</clipPath>
<g id="surface5" clip-path="url(#clip3)">
<path style=" stroke:none;fill-rule:nonzero;fill:rgb(0%,0%,0%);fill-opacity:1;" d="M 22.507813 10.726563 L 21.949219 11.84375 L 22.011719 11.875 L 22.078125 11.898438 Z M 24.875 12.203125 L 23.984375 13.082031 L 23.996094 13.09375 Z M 26.46875 14.550781 L 25.308594 15.019531 L 25.316406 15.035156 L 25.324219 15.046875 Z M 26.46875 19.992188 L 25.324219 19.488281 L 25.320313 19.503906 L 25.3125 19.515625 Z M 24.875 22.347656 L 25.757813 23.230469 L 25.765625 23.226563 Z M 22.507813 23.828125 L 22.070313 22.65625 L 22.003906 22.679688 L 21.945313 22.710938 Z M 17.0625 23.828125 L 16.554688 24.96875 L 16.570313 24.976563 L 16.585938 24.980469 Z M 13.242188 19.992188 L 14.394531 19.503906 L 14.390625 19.496094 L 14.390625 19.488281 Z M 14.855469 12.203125 L 15.742188 13.089844 L 15.746094 13.082031 Z M 17.0625 10.726563 L 16.5625 9.578125 Z M 19.785156 11.359375 C 20.597656 11.359375 21.390625 11.566406 21.949219 11.84375 L 23.066406 9.609375 C 22.15625 9.152344 20.980469 8.859375 19.785156 8.859375 Z M 22.078125 11.898438 C 22.921875 12.207031 23.515625 12.605469 23.984375 13.082031 L 25.765625 11.328125 C 25.015625 10.566406 24.101563 9.976563 22.9375 9.550781 Z M 23.996094 13.09375 C 24.636719 13.726563 25.03125 14.320313 25.308594 15.019531 L 27.628906 14.085938 C 27.210938 13.042969 26.617188 12.167969 25.753906 11.316406 Z M 25.324219 15.046875 C 25.613281 15.722656 25.730469 16.414063 25.730469 17.265625 L 28.230469 17.265625 C 28.230469 16.167969 28.078125 15.121094 27.617188 14.054688 Z M 25.730469 17.265625 C 25.730469 18.125 25.613281 18.832031 25.324219 19.488281 L 27.613281 20.492188 C 28.078125 19.429688 28.230469 18.363281 28.230469 17.265625 Z M 25.3125 19.515625 C 25.023438 20.21875 24.625 20.820313 23.984375 21.46875 L 25.765625 23.226563 C 26.609375 22.367188 27.199219 21.5 27.625 20.46875 Z M 23.992188 21.464844 C 23.515625 21.9375 22.921875 22.335938 22.070313 22.65625 L 22.949219 24.996094 C 24.105469 24.5625 25.011719 23.976563 25.757813 23.230469 Z M 21.945313 22.710938 C 21.398438 22.988281 20.609375 23.195313 19.785156 23.195313 L 19.785156 25.695313 C 20.988281 25.695313 22.167969 25.402344 23.074219 24.941406 Z M 19.785156 23.195313 C 19.152344 23.195313 18.316406 22.992188 17.539063 22.671875 L 16.585938 24.980469 C 17.542969 25.378906 18.714844 25.695313 19.785156 25.695313 Z M 17.566406 22.683594 C 16.839844 22.359375 16.226563 21.949219 15.742188 21.464844 L 13.972656 23.230469 C 14.703125 23.964844 15.582031 24.539063 16.554688 24.96875 Z M 15.742188 21.464844 C 15.09375 20.820313 14.695313 20.21875 14.394531 19.503906 L 12.09375 20.476563 C 12.527344 21.503906 13.113281 22.371094 13.972656 23.230469 Z M 14.390625 19.488281 C 14.105469 18.839844 14 18.175781 14 17.265625 L 11.5 17.265625 C 11.5 18.382813 11.628906 19.421875 12.097656 20.492188 Z M 14 17.265625 C 14 16.363281 14.105469 15.710938 14.390625 15.046875 L 12.097656 14.054688 C 11.632813 15.128906 11.5 16.148438 11.5 17.265625 Z M 14.390625 15.046875 C 14.703125 14.328125 15.105469 13.722656 15.742188 13.089844 L 13.972656 11.320313 C 13.121094 12.171875 12.535156 13.039063 12.097656 14.054688 Z M 15.746094 13.082031 C 16.226563 12.59375 16.84375 12.183594 17.5625 11.871094 L 16.5625 9.578125 C 15.59375 10 14.703125 10.578125 13.964844 11.328125 Z M 17.558594 11.871094 C 18.308594 11.546875 19.140625 11.359375 19.785156 11.359375 L 19.785156 8.859375 C 18.726563 8.859375 17.554688 9.152344 16.5625 9.578125 Z M 17.558594 11.871094 "/>
<g clip-path="url(#clip4)" clip-rule="nonzero">
<path style=" stroke:none;fill-rule:nonzero;fill:rgb(0%,0%,0%);fill-opacity:1;" d="M 27.714844 5.664063 L 26.488281 5.894531 L 26.679688 6.914063 L 27.714844 6.914063 Z M 27.132813 2.582031 L 25.898438 2.78125 L 25.90625 2.8125 Z M 12.582031 2.582031 L 13.808594 2.8125 L 13.8125 2.796875 L 13.8125 2.78125 Z M 12 5.664063 L 12 6.914063 L 13.035156 6.914063 L 13.226563 5.894531 Z M 3.324219 4.414063 C 1.433594 4.414063 -0.128906 6.011719 -0.128906 7.875 L 2.371094 7.875 C 2.371094 7.375 2.832031 6.914063 3.324219 6.914063 Z M -0.128906 7.875 L -0.128906 26.53125 L 2.371094 26.53125 L 2.371094 7.875 Z M -0.128906 26.53125 C -0.128906 28.578125 1.648438 30.128906 3.46875 30.128906 L 3.46875 27.628906 C 2.9375 27.628906 2.371094 27.105469 2.371094 26.53125 Z M 3.46875 30.128906 L 36.101563 30.128906 L 36.101563 27.628906 L 3.46875 27.628906 Z M 36.101563 30.128906 C 38.085938 30.128906 39.71875 28.554688 39.71875 26.53125 L 37.21875 26.53125 C 37.21875 27.144531 36.734375 27.628906 36.101563 27.628906 Z M 39.71875 26.53125 L 39.71875 7.875 L 37.21875 7.875 L 37.21875 26.53125 Z M 39.71875 7.875 C 39.71875 6.117188 38.378906 4.414063 36.40625 4.414063 L 36.40625 6.914063 C 36.78125 6.914063 37.21875 7.269531 37.21875 7.875 Z M 36.40625 4.414063 L 27.714844 4.414063 L 27.714844 6.914063 L 36.40625 6.914063 Z M 28.941406 5.429688 L 28.359375 2.347656 L 25.90625 2.8125 L 26.488281 5.894531 Z M 28.367188 2.378906 C 28.117188 0.863281 26.839844 -0.128906 25.375 -0.128906 L 25.375 2.371094 C 25.6875 2.371094 25.859375 2.542969 25.898438 2.78125 Z M 25.375 -0.128906 L 14.335938 -0.128906 L 14.335938 2.371094 L 25.375 2.371094 Z M 14.335938 -0.128906 C 12.871094 -0.128906 11.59375 0.863281 11.347656 2.378906 L 13.8125 2.78125 C 13.851563 2.542969 14.027344 2.371094 14.335938 2.371094 Z M 11.351563 2.347656 L 10.769531 5.429688 L 13.226563 5.894531 L 13.808594 2.8125 Z M 12 4.414063 L 3.324219 4.414063 L 3.324219 6.914063 L 12 6.914063 Z M 12 4.414063 "/>
</g>
<path style=" stroke:none;fill-rule:nonzero;fill:rgb(0%,0%,0%);fill-opacity:1;" d="M 34.945313 10.304688 C 34.945313 11.046875 34.34375 11.648438 33.601563 11.648438 C 32.859375 11.648438 32.257813 11.046875 32.257813 10.304688 C 32.257813 9.5625 32.859375 8.960938 33.601563 8.960938 C 34.34375 8.960938 34.945313 9.5625 34.945313 10.304688 Z M 34.945313 10.304688 "/>
</g>
</defs>
<g id="surface1">
<use xlink:href="#surface5" mask="url(#mask0)"/>
</g>
</svg>
