<?xml version="1.0" encoding="UTF-8"?>
<svg xmlns="http://www.w3.org/2000/svg" xmlns:xlink="http://www.w3.org/1999/xlink" width="28pt" height="28pt" viewBox="0 0 28 28" version="1.1">
<g id="surface1">
<path style=" stroke:none;fill-rule:nonzero;fill:rgb(0%,63.136292%,91.371155%);fill-opacity:1;" d="M 0 8 C 0 3.582031 3.582031 0 8 0 L 20 0 C 24.417969 0 28 3.582031 28 8 L 28 20 C 28 24.417969 24.417969 28 20 28 L 8 28 C 3.582031 28 0 24.417969 0 20 Z M 0 8 "/>
<path style=" stroke:none;fill-rule:nonzero;fill:rgb(100%,100%,100%);fill-opacity:1;" d="M 21.75 10.316406 L 17.101563 10.316406 C 16.773438 10.316406 16.515625 10.058594 16.515625 9.734375 C 16.515625 9.410156 16.773438 9.148438 17.101563 9.148438 L 21.75 9.148438 C 22.074219 9.148438 22.332031 9.410156 22.332031 9.734375 C 22.332031 10.058594 22.074219 10.316406 21.75 10.316406 Z M 21.75 10.316406 "/>
<path style=" stroke:none;fill-rule:nonzero;fill:rgb(100%,100%,100%);fill-opacity:1;" d="M 9.351563 10.316406 L 6.25 10.316406 C 5.925781 10.316406 5.667969 10.058594 5.667969 9.734375 C 5.667969 9.410156 5.925781 9.148438 6.25 9.148438 L 9.351563 9.148438 C 9.675781 9.148438 9.933594 9.410156 9.933594 9.734375 C 9.933594 10.058594 9.667969 10.316406 9.351563 10.316406 Z M 9.351563 10.316406 "/>
<path style=" stroke:none;fill-rule:nonzero;fill:rgb(100%,100%,100%);fill-opacity:1;" d="M 12.449219 13.023438 C 14.269531 13.023438 15.742188 11.550781 15.742188 9.734375 C 15.742188 7.914063 14.269531 6.441406 12.449219 6.441406 C 10.632813 6.441406 9.160156 7.914063 9.160156 9.734375 C 9.160156 11.550781 10.632813 13.023438 12.449219 13.023438 Z M 12.449219 13.023438 "/>
<path style=" stroke:none;fill-rule:nonzero;fill:rgb(100%,100%,100%);fill-opacity:1;" d="M 21.75 18.839844 L 18.648438 18.839844 C 18.324219 18.839844 18.066406 18.582031 18.066406 18.257813 C 18.066406 17.933594 18.324219 17.675781 18.648438 17.675781 L 21.75 17.675781 C 22.074219 17.675781 22.332031 17.933594 22.332031 18.257813 C 22.332031 18.582031 22.074219 18.839844 21.75 18.839844 Z M 21.75 18.839844 "/>
<path style=" stroke:none;fill-rule:nonzero;fill:rgb(100%,100%,100%);fill-opacity:1;" d="M 10.898438 18.839844 L 6.25 18.839844 C 5.925781 18.839844 5.667969 18.582031 5.667969 18.257813 C 5.667969 17.933594 5.925781 17.675781 6.25 17.675781 L 10.898438 17.675781 C 11.226563 17.675781 11.484375 17.933594 11.484375 18.257813 C 11.484375 18.582031 11.214844 18.839844 10.898438 18.839844 Z M 10.898438 18.839844 "/>
<path style=" stroke:none;fill-rule:nonzero;fill:rgb(100%,100%,100%);fill-opacity:1;" d="M 15.550781 21.558594 C 17.367188 21.558594 18.839844 20.085938 18.839844 18.265625 C 18.839844 16.449219 17.367188 14.976563 15.550781 14.976563 C 13.730469 14.976563 12.257813 16.449219 12.257813 18.265625 C 12.257813 20.085938 13.730469 21.558594 15.550781 21.558594 Z M 15.550781 21.558594 "/>
</g>
</svg>
