<?xml version="1.0" encoding="UTF-8"?>
<svg xmlns="http://www.w3.org/2000/svg" xmlns:xlink="http://www.w3.org/1999/xlink" width="30pt" height="30pt" viewBox="0 0 30 30" version="1.1">
<g id="surface1">
<path style=" stroke:none;fill-rule:nonzero;fill:rgb(6.25%,6.25%,6.25%);fill-opacity:1;" d="M 25.125 11.523438 C 22.863281 11.523438 21.9375 9.925781 23.0625 7.960938 C 23.710938 6.824219 23.324219 5.375 22.1875 4.726563 L 20.023438 3.488281 C 19.039063 2.898438 17.761719 3.25 17.175781 4.238281 L 17.039063 4.476563 C 15.914063 6.4375 14.0625 6.4375 12.925781 4.476563 L 12.789063 4.238281 C 12.226563 3.25 10.949219 2.898438 9.960938 3.488281 L 7.800781 4.726563 C 6.664063 5.375 6.273438 6.835938 6.925781 7.976563 C 8.0625 9.925781 7.136719 11.523438 4.875 11.523438 C 3.574219 11.523438 2.5 12.585938 2.5 13.898438 L 2.5 16.101563 C 2.5 17.398438 3.5625 18.476563 4.875 18.476563 C 7.136719 18.476563 8.0625 20.074219 6.925781 22.039063 C 6.273438 23.175781 6.664063 24.625 7.800781 25.273438 L 9.960938 26.511719 C 10.949219 27.101563 12.226563 26.75 12.8125 25.761719 L 12.949219 25.523438 C 14.074219 23.5625 15.925781 23.5625 17.0625 25.523438 L 17.199219 25.761719 C 17.789063 26.75 19.0625 27.101563 20.050781 26.511719 L 22.210938 25.273438 C 23.351563 24.625 23.738281 23.164063 23.085938 22.039063 C 21.949219 20.074219 22.875 18.476563 25.136719 18.476563 C 26.4375 18.476563 27.511719 17.414063 27.511719 16.101563 L 27.511719 13.898438 C 27.5 12.601563 26.4375 11.523438 25.125 11.523438 Z M 15 19.0625 C 12.761719 19.0625 10.9375 17.238281 10.9375 15 C 10.9375 12.761719 12.761719 10.9375 15 10.9375 C 17.238281 10.9375 19.0625 12.761719 19.0625 15 C 19.0625 17.238281 17.238281 19.0625 15 19.0625 Z M 15 19.0625 "/>
</g>
</svg>
